<?xml version="1.0" encoding="UTF-8" standalone="no"?>
<!-- Created with Inkscape (http://www.inkscape.org/) -->

<svg
   width="104.96459mm"
   height="117.5029mm"
   viewBox="0 0 104.96459 117.5029"
   version="1.1"
   id="svg5"
   xmlns="http://www.w3.org/2000/svg"
   xmlns:svg="http://www.w3.org/2000/svg">
  <defs
     id="defs2" />
  <g
     id="layer1"
     transform="translate(-27.177844,-29.750068)">
    <path
       style="fill:#ffffff;stroke-width:0.352778"
       d="m 68.910723,146.62009 c -2.26609,-1.62165 -4.59223,-4.16286 -7.49618,-8.18927 -3.3542,-4.6507 -5.8252,-7.75151 -7.952627,-9.97962 l -1.409312,-1.47601 -3.527696,5.00379 c -4.599411,6.52393 -6.235675,8.40516 -8.800262,10.11773 -1.660826,1.10905 -2.445761,1.41244 -3.65432,1.41244 -2.076536,0 -2.802305,-1.06354 -2.759759,-4.04416 0.0367,-2.57136 0.795244,-5.01961 2.791136,-9.00861 1.554616,-3.10707 5.460074,-9.57062 6.46435,-10.69853 0.706878,-0.7939 0.72948,-0.77508 -5.870755,-4.8898 -8.925147,-5.5641 -9.136719,-5.74901 -9.476458,-8.28194 -0.403625,-3.00925 2.227249,-5.76307 5.505782,-5.76307 2.73764,0 8.3481,2.50351 14.408073,6.42919 l 3.274596,2.1213 3.094284,-2.9829 c 6.275678,-6.04977 13.580238,-8.84639 17.224058,-6.59439 1.45951,0.90203 1.88926,1.6559 1.88926,3.31419 0,2.04848 -0.87805,3.21803 -4.33378,5.77252 -3.2034,2.36797 -8.719,7.58865 -8.719,8.2528 0,0.18731 0.71955,1.14088 1.59899,2.11903 1.82082,2.02519 4.79618,6.41303 6.63885,9.79048 2.99143,5.48302 4.77517,13.55787 3.70055,16.75213 -0.5589,1.66128 -1.15384,1.85028 -2.58978,0.8227 z m 21.49561,-5.87746 c -2.59895,-2.28915 -2.69684,-2.71348 -3.32215,-14.40073 -0.57915,-10.82431 -1.10248,-15.03101 -3.77741,-30.3639 -0.10947,-0.62748 -0.37711,-1.28026 -0.59476,-1.45062 -0.36564,-0.28619 -16.34512,-3.03342 -23.07436,-3.967 -2.85746,-0.39643 -14.964476,-0.25441 -20.757434,0.24349 -2.002712,0.17214 -2.782265,0.0887 -3.83401,-0.41039 -2.334928,-1.108 -3.252747,-3.60543 -2.125864,-5.78458 0.788625,-1.52503 2.116881,-2.39486 5.081029,-3.32738 4.676098,-1.4711 9.031634,-2.01883 15.942969,-2.00489 6.4963,0.0131 10.36411,0.43608 20.78721,2.2733 2.61938,0.4617 4.79643,0.81237 4.83789,0.77928 0.16617,-0.13264 -1.49997,-5.2597 -3.3334,-10.25755 -1.83515,-5.00256 -5.63006,-13.16628 -9.59334,-20.6375 -2.32958,-4.39152 -2.32495,-5.99722 0.0173,-5.99722 3.34803,0 15.2647,19.90278 20.07855,33.53445 l 1.81366,5.13584 5.01347,1.12475 c 9.220507,2.06858 21.961367,5.64354 24.618157,6.90761 1.82297,0.86736 2.98598,1.71136 3.94446,2.86253 0.74758,0.89789 1.30321,1.68221 1.23472,1.74295 -0.0685,0.0607 -1.01086,0.60646 -2.09414,1.21272 -1.81416,1.01528 -2.24576,1.10564 -5.46806,1.14484 -2.21693,0.0269 -5.63067,-0.28997 -9.31927,-0.86522 -9.832647,-1.53343 -14.134267,-2.09492 -14.355367,-1.87381 -0.11647,0.11646 0.21176,2.33431 0.72938,4.92856 1.40866,7.05994 2.30511,15.41346 2.54293,23.69616 0.32279,11.24222 -0.19387,14.03327 -2.96271,16.00486 l -0.96492,0.68709 -1.06454,-0.93764 z M 107.18711,77.17584 c -4.39328,-0.9229 -8.620947,-4.21983 -10.587697,-8.25678 -1.87502,-3.84865 -2.28688,-6.10972 -2.28532,-12.54601 0.001,-5.48292 0.0581,-5.97443 0.97696,-8.46667 0.53655,-1.45521 1.30078,-3.75595 1.69828,-5.11277 1.11598,-3.80916 2.61066,-6.269366 5.444147,-8.960903 3.44199,-3.269559 5.43398,-4.065042 10.22168,-4.081933 3.12433,-0.01102 3.76412,0.09826 5.59437,0.955624 4.4665,2.092287 7.49149,5.211154 10.05706,10.369182 3.52921,7.09539 4.70167,15.16768 3.18951,21.95956 -0.89328,4.01217 -4.17122,8.40979 -8.22994,11.04112 -4.10661,2.66237 -11.4352,4.07512 -16.07905,3.09958 z m 8.63385,-8.44033 c 4.07361,-1.99704 6.15377,-5.53751 6.4509,-10.97954 0.40182,-7.35964 -4.06125,-16.63424 -8.65655,-17.98897 -1.25365,-0.36958 -1.78992,-0.3578 -3.16601,0.0695 -1.38682,0.43068 -1.71017,0.7009 -1.98487,1.65872 -0.20427,0.71223 -1.0866,1.80127 -2.33705,2.88455 -2.91713,2.52715 -4.42164,6.19757 -5.32598,12.99336 -0.71344,5.36118 -0.11235,8.7526 1.89156,10.67231 1.55967,1.49414 2.65936,1.74768 7.13998,1.64616 3.6539,-0.0828 4.4735,-0.21366 5.98802,-0.95613 z"
       id="path1186" />
  </g>
</svg>
