<?xml version="1.0" encoding="UTF-8"?>
<!-- Created with Inkscape (http://www.inkscape.org/) -->
<svg width="106.9mm" height="97.879mm" version="1.1" viewBox="0 0 106.9 97.879" xmlns="http://www.w3.org/2000/svg">
 <g transform="translate(-38.518 -70.429)">
  <path d="m89.338 167.9c-18.066-2.9685-35.141-17.735-39.434-34.104-0.33219-1.2665-0.70027-2.3028-0.81796-2.3028-0.11769 0-0.49801 0.90106-0.84517 2.0024-0.34715 1.1013-1.0462 2.4955-1.5534 3.0983-1.8875 2.2432-5.1823 2.1351-6.9857-0.22917-1.3892-1.8213-1.5169-4.8172-0.48328-11.338 1.8949-11.956 4.2806-21.441 6.626-26.344 1.7197-3.5949 3.1752-4.8922 5.7684-5.1414 2.3827-0.22895 3.2948 0.65513 5.1552 4.997 3.3682 7.8606 8.9738 17.005 12.819 20.912 1.9127 1.9433 2.878 2.6078 4.9378 3.3996 3.8596 1.4836 4.9378 2.634 4.9378 5.2682 0 3.8726-3.0015 6.3013-7.7873 6.3013-3.5936 0-6.1682-1.2726-10.147-5.0155-1.6159-1.5201-3.03-2.6718-3.1425-2.5592-0.46507 0.46507 3.6846 8.1275 6.2352 11.513 6.4364 8.5444 13.732 13.511 23.593 16.061 3.2069 0.82941 3.9944 0.89141 9.354 0.73636 4.9107-0.14207 6.3624-0.32159 9.0234-1.1159 11.884-3.5474 19.54-9.4283 23.335-17.925 1.2948-2.8989 1.7013-4.6432 2.2279-9.56 0.51637-4.8212 0.27807-8.2652-0.91111-13.167-1.9082-7.8663-4.6815-13.781-8.072-17.215-4.3752-4.4313-14.576-10.188-20.483-11.558-1.8105-0.42009-3.9113-0.9144-4.6683-1.0985-1.5966-0.38823-3.7134-2.1215-4.5377-3.7155-0.82291-1.5913-0.77469-4.2574 0.10421-5.7622 2.1541-3.6884 7.9262-4.6304 14.588-2.3809 4.5097 1.5227 10.906 4.7282 15.545 7.7901 9.6675 6.3811 15.31 14.411 19.192 27.315 1.8604 6.1831 2.4884 10.205 2.4907 15.953 3e-3 7.8938-1.1332 12.653-4.7605 19.934-2.5764 5.1721-4.6235 8.0272-8.5479 11.922-3.7784 3.75-6.8731 5.8734-12.454 8.5452-5.0271 2.4067-8.6169 3.6335-12.952 4.4263-4.4879 0.82075-13.412 1.0047-17.35 0.35765zm-36.576-49.599c0-0.72232-0.76528-1.8271-1.1156-1.6106-0.19108 0.11809-0.34741 0.61649-0.34741 1.1075 0 0.64898 0.19979 0.89282 0.73153 0.89282 0.40234 0 0.73153-0.17541 0.73153-0.38981z" fill="#fff" stroke="#000" stroke-width=".036576"/>
 </g>
</svg>
